Coordinates
version=1
nRows=14
nColumns=40
inDegrees=yes

Units are S.I. units (second, meters, Newtons, ...)
If the header above contains a line with 'inDegrees', this indicates whether rotational values are in degrees (yes) or radians (no).

endheader
time	pelvis_tilt	pelvis_list	pelvis_rotation	pelvis_tx	pelvis_ty	pelvis_tz	hip_flexion_r	hip_adduction_r	hip_rotation_r	knee_angle_r	knee_angle_r_beta	ankle_angle_r	subtalar_angle_r	mtp_angle_r	hip_flexion_l	hip_adduction_l	hip_rotation_l	knee_angle_l	knee_angle_l_beta	ankle_angle_l	subtalar_angle_l	mtp_angle_l	lumbar_extension	lumbar_bending	lumbar_rotation	arm_flex_r	arm_add_r	arm_rot_r	elbow_flex_r	pro_sup_r	wrist_flex_r	wrist_dev_r	arm_flex_l	arm_add_l	arm_rot_l	elbow_flex_l	pro_sup_l	wrist_flex_l	wrist_dev_l
      2.53333333	     11.81031946	      3.49064329	    -10.56328975	     -0.21037806	      0.89813129	     -0.32108317	     12.79734301	     -8.16400733	      5.53057352	     60.10532062	      1.04903574	      2.40300405	      0.00000000	      0.00000000	     -7.25433508	      9.75576329	     -9.76768477	     10.41850092	      0.18183714	     11.90233525	      0.00000000	      0.00000000	    -24.08479343	     -2.11344978	     10.45990153	      0.00000000	    -10.00815188	      0.00000000	     74.53345801	     45.22942645	      0.00000000	      0.00000000	      0.00000000	    -10.00815188	      0.00000000	     74.53345801	     45.22942645	      0.00000000	      0.00000000
      2.54000000	     11.75962944	      3.24229938	    -10.32735398	     -0.20271649	      0.89839069	     -0.32211816	     13.34856354	     -7.71171364	      5.06999660	     58.99180111	      1.02960116	      2.90724490	      0.00000000	      0.00000000	     -7.96112191	      9.65500810	     -9.54674597	     10.10377910	      0.17634421	     12.05014022	      0.00000000	      0.00000000	    -24.13261643	     -1.74855671	     10.24579705	      0.00000000	    -10.01605259	      0.00000000	     74.53490138	     45.22746133	      0.00000000	      0.00000000	      0.00000000	    -10.01605259	      0.00000000	     74.53490138	     45.22746133	      0.00000000	      0.00000000
      2.54666667	     11.83271015	      3.04044793	    -10.04856670	     -0.19509552	      0.89862848	     -0.32314121	     13.71125530	     -7.38230005	      4.53164842	     57.71474888	      1.00731239	      4.45282280	      0.00000000	      0.00000000	     -8.78617022	      9.60243021	     -9.35031326	      9.80011412	      0.17104426	     12.56680750	      0.00000000	      0.00000000	    -24.36726693	     -1.51518346	      9.81050851	      0.00000000	    -10.05322703	      0.00000000	     74.54166145	     45.21841240	      0.00000000	      0.00000000	      0.00000000	    -10.05322703	      0.00000000	     74.54166145	     45.21841240	      0.00000000	      0.00000000
      2.55333333	     11.74626619	      2.80750573	     -9.77399119	     -0.18743380	      0.89864700	     -0.32411804	     14.20955342	     -6.97707876	      4.03295840	     56.30391913	      0.98268877	      4.63800681	      0.00000000	      0.00000000	     -9.39161872	      9.46734473	     -9.22587209	      9.60909565	      0.16771036	     12.65869575	      0.00000000	      0.00000000	    -24.38655148	     -1.15742398	      9.67189835	      0.00000000	    -10.06126096	      0.00000000	     74.54311647	     45.21649323	      0.00000000	      0.00000000	      0.00000000	    -10.06126096	      0.00000000	     74.54311647	     45.21649323	      0.00000000	      0.00000000
      2.56000000	     11.72041114	      2.57219584	     -9.47823775	     -0.17978256	      0.89867722	     -0.32508700	     14.57785638	     -6.60469209	      3.50050035	     54.72009559	      0.95504584	      4.90082573	      0.00000000	      0.00000000	    -10.06746520	      9.32760127	     -9.10002409	      9.40583267	      0.16416275	     12.80359622	      0.00000000	      0.00000000	    -24.47354899	     -0.79205256	      9.44437017	      0.00000000	    -10.06990830	      0.00000000	     74.54468006	     45.21444294	      0.00000000	      0.00000000	      0.00000000	    -10.06990830	      0.00000000	     74.54468006	     45.21444294	      0.00000000	      0.00000000
      2.56666667	     11.66552059	      2.35472620	     -9.18382471	     -0.17215533	      0.89856065	     -0.32594865	     14.94723227	     -6.24785626	      2.98709457	     53.01682102	      0.92531809	      5.16318978	      0.00000000	      0.00000000	    -10.70271737	      9.18589683	     -8.98542725	      9.20302021	      0.16062300	     12.96791283	      0.00000000	      0.00000000	    -24.54820175	     -0.51120580	      9.20684212	      0.00000000	    -10.07799527	      0.00000000	     74.54613995	     45.21254004	      0.00000000	      0.00000000	      0.00000000	    -10.07799527	      0.00000000	     74.54613995	     45.21254004	      0.00000000	      0.00000000
      2.57333333	     11.61026459	      2.15774101	     -8.89043229	     -0.16451761	      0.89836807	     -0.32677334	     15.27941463	     -5.92104437	      2.49288220	     51.19232891	      0.89347469	      5.40512812	      0.00000000	      0.00000000	    -11.32301228	      9.05413506	     -8.89621415	      9.02268395	      0.15747554	     13.14606644	      0.00000000	      0.00000000	    -24.60491473	     -0.24828719	      8.96614394	      0.00000000	    -10.08567780	      0.00000000	     74.54752483	     45.21074434	      0.00000000	      0.00000000	      0.00000000	    -10.08567780	      0.00000000	     74.54752483	     45.21074434	      0.00000000	      0.00000000
      2.58000000	     11.51088563	      2.04472593	     -8.61401868	     -0.15686008	      0.89801911	     -0.32751742	     15.65406095	     -5.68142741	      2.05810160	     49.29094120	      0.86028922	      5.56654715	      0.00000000	      0.00000000	    -11.86301495	      8.99375861	     -8.86563881	      8.88067911	      0.15499709	     13.28894273	      0.00000000	      0.00000000	    -24.58669283	     -0.15599871	      8.78699098	      0.00000000	    -10.09104007	      0.00000000	     74.54849014	     45.20949872	      0.00000000	      0.00000000	      0.00000000	    -10.09104007	      0.00000000	     74.54849014	     45.20949872	      0.00000000	      0.00000000
      2.58666667	     11.53334457	      1.77911663	     -8.29766534	     -0.14917275	      0.89779578	     -0.32829563	     15.76777909	     -5.31479861	      1.53714427	     47.18467617	      0.82352796	      5.80362820	      0.00000000	      0.00000000	    -12.58738762	      8.77262098	     -8.82664324	      8.69797792	      0.15180835	     13.57663487	      0.00000000	      0.00000000	    -24.76122191	      0.25043646	      8.44110987	      0.00000000	    -10.10186208	      0.00000000	     74.55043522	     45.20700375	      0.00000000	      0.00000000	      0.00000000	    -10.10186208	      0.00000000	     74.55043522	     45.20700375	      0.00000000	      0.00000000
      2.59333333	     11.34884257	      1.92072331	     -8.14610290	     -0.14165398	      0.89694266	     -0.32890710	     16.40405420	     -5.38680518	      1.19197980	     45.42378853	      0.79279467	      5.85178730	      0.00000000	      0.00000000	    -12.94160083	      8.98276844	     -8.96860417	      8.62191947	      0.15048088	     13.64293228	      0.00000000	      0.00000000	    -24.76853840	      0.04617354	      8.39146076	      0.00000000	    -10.10393811	      0.00000000	     74.55080784	     45.20652791	      0.00000000	      0.00000000	      0.00000000	    -10.10393811	      0.00000000	     74.55080784	     45.20652791	      0.00000000	      0.00000000
      2.60000000	     11.24020626	      1.52855524	     -7.75021692	     -0.13378526	      0.89668437	     -0.32954726	     16.39271426	     -4.78136117	      0.85446038	     42.85213916	      0.74791092	      5.92348046	      0.00000000	      0.00000000	    -13.58153436	      8.58070579	     -8.71449574	      8.39518441	      0.14652361	     13.85928174	      0.00000000	      0.00000000	    -24.63670831	      0.59834814	      8.09599910	      0.00000000	    -10.11073847	      0.00000000	     74.55202757	     45.20497499	      0.00000000	      0.00000000	      0.00000000	    -10.11073847	      0.00000000	     74.55202757	     45.20497499	      0.00000000	      0.00000000
      2.60666667	     11.20194579	      1.36813833	     -7.48373042	     -0.12605093	      0.89616944	     -0.33011620	     16.49110114	     -4.50507003	      0.52121856	     40.51204352	      0.70706855	      5.91318197	      0.00000000	      0.00000000	    -14.19939429	      8.44263621	     -8.75128538	      8.26938225	      0.14432795	     14.09217074	      0.00000000	      0.00000000	    -24.65377401	      0.80725662	      7.84877975	      0.00000000	    -10.11835416	      0.00000000	     74.55339159	     45.20324746	      0.00000000	      0.00000000	      0.00000000	    -10.11835416	      0.00000000	     74.55339159	     45.20324746	      0.00000000	      0.00000000
      2.61333333	     11.13795603	      1.20921551	     -7.21448653	     -0.11829707	      0.89556907	     -0.33063458	     16.60381254	     -4.22785843	      0.20404605	     38.15617095	      0.66595081	      5.78243089	      0.00000000	      0.00000000	    -14.79622966	      8.28818896	     -8.82913782	      8.12045403	      0.14172866	     14.37557090	      0.00000000	      0.00000000	    -24.73728385	      1.00699242	      7.60236745	      0.00000000	    -10.12908058	      0.00000000	     74.55530941	     45.20083406	      0.00000000	      0.00000000	      0.00000000	    -10.12908058	      0.00000000	     74.55530941	     45.20083406	      0.00000000	      0.00000000
      2.62000000	     11.05860248	      1.11169577	     -6.97938571	     -0.11057569	      0.89488429	     -0.33106585	     16.71761786	     -3.99687373	      0.00803775	     35.74495572	      0.62386717	      5.42262664	      0.00000000	      0.00000000	    -15.35347732	      8.20092768	     -8.88422470	      8.00315294	      0.13968137	     14.73119218	      0.00000000	      0.00000000	    -24.77530808	      1.10864012	      7.38879256	      0.00000000	    -10.14849291	      0.00000000	     74.55877012	     45.19652539	      0.00000000	      0.00000000	      0.00000000	    -10.14849291	      0.00000000	     74.55877012	     45.19652539	      0.00000000	      0.00000000
